/* XPM */
static const char *pszTabCloseBtn[] = {
/* columns rows colors chars-per-pixel */
"8 8 2 1 ",
"  c None",
". c black",
/* pixels */
"..    ..",
"...  ...",
" ...... ",
"  ....  ",
"  ....  ",
" ...... ",
"...  ...",
"..    .."
};
