/* XPM */
static const char *  statusIcon[] = {
/* columns rows colors chars-per-pixel */
"32 32 4 1 ",
"  c None",
". c #BA0000",
"X c #5800BA",
"o c #0078BA",
/* pixels */
"oooooooooooooooo           .....",
"oooooooooooooooo           .....",
"oooooooooooooooo           .....",
"oooooooooooooooo           .....",
"oooooooooooooooo           .....",
"oooooooooooooooo                ",
"oooooooooooooooo                ",
"oooooooo............            ",
"oooooooo............            ",
"oooooooo............            ",
"oooooooo............XXXXXXXXXXXX",
"oooooooo............XXXXXXXXXXXX",
"oooooooo............XXXXXXXXXXXX",
"oooooooo............XXXXXXXXXXXX",
"oooooooo............XXXXXXXXXXXX",
"oooooooo............XXXXXXXXXXXX",
"        ............XXXXXXXXXXXX",
"        ............XXXXXXXXXXXX",
"        ............XXXXXXXXXXXX",
"        ............XXXXXXXXXXXX",
"          XXXXXXXXXXXXXXXXXXXXXX",
"          XXXXXXXXXXXXXXXXXXXXXX",
"          XXXXXXXXXXXXXXXXXXXXXX",
"          XXXXXXXXXXXXXXXXXXXXXX",
"          XXXXXXXXXXXXXXXXXXXXXX",
"          XXXXXXXXXXXXXXXXXXXXXX",
"          XXXXXXXXXXXXXXXXXXXXXX",
".....     XXXXXXXXXXXXXXXXXXXXXX",
".....     XXXXXXXXXXXXXXXXXXXXXX",
".....     XXXXXXXXXXXXXXXXXXXXXX",
".....     XXXXXXXXXXXXXXXXXXXXXX",
".....     XXXXXXXXXXXXXXXXXXXXXX"
};
