<?xml version="1.0" encoding="UTF-8" standalone="no"?>
<!-- Created with Inkscape (http://www.inkscape.org/) -->

<svg
   width="210mm"
   height="297mm"
   viewBox="0 0 210 297"
   version="1.1"
   id="svg5"
   inkscape:version="1.1.1 (3bf5ae0d25, 2021-09-20)"
   sodipodi:docname="Reticule.svg"
   xmlns:inkscape="http://www.inkscape.org/namespaces/inkscape"
   xmlns:sodipodi="http://sodipodi.sourceforge.net/DTD/sodipodi-0.dtd"
   xmlns="http://www.w3.org/2000/svg"
   xmlns:svg="http://www.w3.org/2000/svg">
  <sodipodi:namedview
     id="namedview7"
     pagecolor="#ffffff"
     bordercolor="#666666"
     borderopacity="1.0"
     inkscape:pageshadow="2"
     inkscape:pageopacity="0.0"
     inkscape:pagecheckerboard="0"
     inkscape:document-units="mm"
     showgrid="false"
     inkscape:snap-bbox="true"
     inkscape:bbox-paths="true"
     inkscape:bbox-nodes="true"
     inkscape:snap-bbox-edge-midpoints="true"
     inkscape:snap-bbox-midpoints="true"
     inkscape:object-paths="true"
     inkscape:snap-intersection-paths="true"
     inkscape:snap-smooth-nodes="true"
     inkscape:snap-midpoints="true"
     inkscape:snap-object-midpoints="true"
     inkscape:snap-center="true"
     showguides="true"
     inkscape:guide-bbox="true"
     inkscape:zoom="1.4645623"
     inkscape:cx="459.86436"
     inkscape:cy="242.73464"
     inkscape:window-width="2560"
     inkscape:window-height="1017"
     inkscape:window-x="-8"
     inkscape:window-y="-8"
     inkscape:window-maximized="1"
     inkscape:current-layer="layer1">
    <sodipodi:guide
       position="75.042135,245.98523"
       orientation="0,-1"
       id="guide1020" />
    <sodipodi:guide
       position="75.042138,213.2447"
       orientation="0,-1"
       id="guide1079" />
    <sodipodi:guide
       position="55.350535,229.61497"
       orientation="1,0"
       id="guide1081" />
    <sodipodi:guide
       position="88.09107,227.9543"
       orientation="1,0"
       id="guide1083" />
    <sodipodi:guide
       position="61.994146,232.93648"
       orientation="0,-1"
       id="guide1430" />
    <sodipodi:guide
       position="61.994146,226.29347"
       orientation="0,-1"
       id="guide1432" />
    <sodipodi:guide
       position="68.398918,239.34203"
       orientation="1,0"
       id="guide1434" />
    <sodipodi:guide
       position="75.042448,239.34203"
       orientation="1,0"
       id="guide1436" />
  </sodipodi:namedview>
  <defs
     id="defs2" />
  <g
     inkscape:label="Layer 1"
     inkscape:groupmode="layer"
     id="layer1">
    <path
       id="path846"
       style="fill:#000000;stroke:#000000;stroke-width:1.00157;stop-color:#000000"
       d="M 283.625 181.45117 L 283.625 192.8125 L 283.625 194.30078 A 61.871875 61.87186 0 0 1 331.49023 242.12891 L 331.875 242.12891 L 344.4082 242.12891 A 74.424958 74.424958 0 0 0 283.625 181.45117 z M 258.51562 181.46875 A 74.424958 74.424958 0 0 0 197.83008 242.12891 L 209.19922 242.12891 L 210.65234 242.12891 A 61.871875 61.87186 0 0 1 258.51562 194.30078 L 258.51562 192.8125 L 258.51562 181.46875 z M 197.83008 267.23633 A 74.424958 74.424958 0 0 0 258.51562 327.89844 L 258.51562 316.55469 L 258.51562 315.06836 A 61.871875 61.87186 0 0 1 210.65039 267.23633 L 209.19922 267.23633 L 197.83008 267.23633 z M 331.45703 267.23633 A 61.871875 61.87186 0 0 1 283.625 315.10352 L 283.625 316.55469 L 283.625 328.02148 A 74.424958 74.424958 0 0 0 344.30273 267.23633 L 331.875 267.23633 L 331.45703 267.23633 z "
       transform="scale(0.26458333)" />
    <rect
       style="fill:#000000;stroke:#000000;stroke-width:0.264999;stop-color:#000000"
       id="rect870"
       width="3.3213375"
       height="3.3213375"
       x="131.2027"
       y="117.29478" />
    <path
       id="rect870-5"
       style="fill:#000000;stroke:#000000;stroke-width:0.264999;stop-color:#000000"
       d="m 48.708653,65.724151 v 3.321762 h 3.321762 3.321243 3.321246 3.321243 v -3.321762 h -3.321243 -3.321246 -3.321243 z" />
    <rect
       style="fill:#000000;stroke:#000000;stroke-width:0.264999;stop-color:#000000"
       id="rect870-5-8"
       width="3.3213375"
       height="3.3213375"
       x="124.79919"
       y="82.094635" />
    <rect
       style="fill:#000000;stroke:#000000;stroke-width:0.264999;stop-color:#000000"
       id="rect870-5-2"
       width="3.3213375"
       height="3.3213375"
       x="133.9044"
       y="100.06845" />
    <rect
       style="fill:#000000;stroke:#000000;stroke-width:0.264999;stop-color:#000000"
       id="rect870-5-0"
       width="3.3213375"
       height="3.3213375"
       x="72.998238"
       y="102.15041" />
    <path
       id="rect870-1"
       style="fill:#000000;stroke:#000000;stroke-width:0.264999;stop-color:#000000"
       d="m 152.09569,90.16745 v 3.321762 3.321243 3.321765 3.32124 h 3.32177 3.32176 v -3.32124 -3.321765 -3.321243 -3.321762 h -3.32176 z" />
    <path
       id="rect870-1-3"
       style="fill:#000000;stroke:#000000;stroke-width:0.264999;stop-color:#000000"
       d="m 169.97988,96.299376 v 3.321761 3.321243 h 3.32176 3.32176 3.32176 3.32176 v -3.321243 -3.321761 h -3.32176 -3.32176 -3.32176 z" />
    <ellipse
       style="fill:#000000;stroke:#000000;stroke-width:0.264999;stop-color:#000000"
       id="path1460"
       cx="71.720688"
       cy="67.385025"
       rx="3.3217649"
       ry="3.3215051" />
    <path
       id="rect870-5-5"
       style="fill:#000000;stroke:#000000;stroke-width:0.264999;stop-color:#000000"
       d="m 81.166647,65.724319 v 3.321762 h 3.32176 3.32125 3.32124 3.32124 v -3.321762 h -3.32124 -3.32124 -3.32125 z" />
    <path
       id="rect870-5-5-9"
       style="fill:#000000;stroke:#000000;stroke-width:0.264999;stop-color:#000000"
       d="m 73.381568,44.37223 h -3.321765 v 3.321759 3.321248 3.32124 3.321241 h 3.321765 v -3.321241 -3.32124 -3.321248 z" />
    <path
       id="rect870-5-5-3"
       style="fill:#000000;stroke:#000000;stroke-width:0.264999;stop-color:#000000"
       d="m 70.059804,90.397839 h 3.321762 v -3.32176 -3.32125 -3.32124 -3.32124 h -3.321762 v 3.32124 3.32124 3.32125 z" />
  </g>
</svg>
